<svg xmlns="http://www.w3.org/2000/svg" fill="none" viewBox="0 0 64 64"><g clip-path="url(#a)"><path fill="#F9F9F9" d="M0 0h64v64H0z"/><path fill="#6912BF" d="M19.2 29.85h13.1V47h-3.8l-1.05-3.5c-1 1.3-2.23 2.3-3.7 3-1.46.7-3.03 1.05-4.7 1.05-3.93 0-6.95-1.35-9.05-4.05-2.1-2.7-3.15-6.78-3.15-12.25S8 21.7 10.3 19c2.3-2.73 5.6-4.1 9.9-4.1 2.17 0 4.17.45 6 1.35 1.87.9 3.35 2.23 4.45 4a11.42 11.42 0 0 1 1.65 6.25h-6.05c0-2.03-.6-3.63-1.8-4.8a5.97 5.97 0 0 0-4.4-1.75c-2.4 0-4.18.88-5.35 2.65-1.16 1.77-1.75 4.27-1.75 7.5v2.3c0 3.3.59 5.82 1.75 7.55 1.2 1.7 3 2.55 5.4 2.55a5.5 5.5 0 0 0 4.45-2.05c1.14-1.4 1.7-3.23 1.7-5.5H19.2v-5.1Zm29.9-9.15V47h-5.85V20.7h-7.8v-5.2h21.5v5.2H49.1Z"/></g><defs><clipPath id="a"><path fill="#fff" d="M0 0h64v64H0z"/></clipPath></defs></svg>